<mxfile host="app.diagrams.net" modified="2023-08-19T18:57:54.927Z" agent="Mozilla/5.0 (Windows NT 10.0; Win64; x64) AppleWebKit/537.36 (KHTML, like Gecko) Chrome/115.0.0.0 Safari/537.36" etag="7YKJrYgG65RDjER52WCT" version="21.3.4" type="google">
  <diagram id="C5RBs43oDa-KdzZeNtuy" name="Page-1">
    <mxGraphModel grid="1" page="1" gridSize="10" guides="1" tooltips="1" connect="1" arrows="1" fold="1" pageScale="1" pageWidth="827" pageHeight="1169" math="0" shadow="0">
      <root>
        <mxCell id="WIyWlLk6GJQsqaUBKTNV-0" />
        <mxCell id="WIyWlLk6GJQsqaUBKTNV-1" parent="WIyWlLk6GJQsqaUBKTNV-0" />
        <mxCell id="2lHZeVdWj4hI9dxoHAF5-11" style="edgeStyle=orthogonalEdgeStyle;rounded=0;orthogonalLoop=1;jettySize=auto;html=1;entryX=0.5;entryY=0;entryDx=0;entryDy=0;" edge="1" parent="WIyWlLk6GJQsqaUBKTNV-1" source="2lHZeVdWj4hI9dxoHAF5-0" target="2lHZeVdWj4hI9dxoHAF5-10">
          <mxGeometry relative="1" as="geometry" />
        </mxCell>
        <mxCell id="2lHZeVdWj4hI9dxoHAF5-0" value="Start" style="ellipse;whiteSpace=wrap;html=1;" vertex="1" parent="WIyWlLk6GJQsqaUBKTNV-1">
          <mxGeometry x="330" y="30" width="120" height="60" as="geometry" />
        </mxCell>
        <mxCell id="2lHZeVdWj4hI9dxoHAF5-13" style="edgeStyle=orthogonalEdgeStyle;rounded=0;orthogonalLoop=1;jettySize=auto;html=1;entryX=0.5;entryY=0;entryDx=0;entryDy=0;" edge="1" parent="WIyWlLk6GJQsqaUBKTNV-1" source="2lHZeVdWj4hI9dxoHAF5-3" target="2lHZeVdWj4hI9dxoHAF5-8">
          <mxGeometry relative="1" as="geometry" />
        </mxCell>
        <mxCell id="2lHZeVdWj4hI9dxoHAF5-3" value="i = 1" style="rounded=0;whiteSpace=wrap;html=1;" vertex="1" parent="WIyWlLk6GJQsqaUBKTNV-1">
          <mxGeometry x="325" y="220" width="130" height="40" as="geometry" />
        </mxCell>
        <mxCell id="2lHZeVdWj4hI9dxoHAF5-19" value="" style="edgeStyle=orthogonalEdgeStyle;rounded=0;orthogonalLoop=1;jettySize=auto;html=1;" edge="1" parent="WIyWlLk6GJQsqaUBKTNV-1" source="2lHZeVdWj4hI9dxoHAF5-8" target="2lHZeVdWj4hI9dxoHAF5-18">
          <mxGeometry relative="1" as="geometry" />
        </mxCell>
        <mxCell id="2lHZeVdWj4hI9dxoHAF5-22" value="" style="edgeStyle=orthogonalEdgeStyle;rounded=0;orthogonalLoop=1;jettySize=auto;html=1;" edge="1" parent="WIyWlLk6GJQsqaUBKTNV-1" source="2lHZeVdWj4hI9dxoHAF5-8" target="2lHZeVdWj4hI9dxoHAF5-21">
          <mxGeometry relative="1" as="geometry" />
        </mxCell>
        <mxCell id="2lHZeVdWj4hI9dxoHAF5-8" value="i &amp;lt; n" style="rhombus;whiteSpace=wrap;html=1;" vertex="1" parent="WIyWlLk6GJQsqaUBKTNV-1">
          <mxGeometry x="345" y="290" width="90" height="60" as="geometry" />
        </mxCell>
        <mxCell id="2lHZeVdWj4hI9dxoHAF5-12" style="edgeStyle=orthogonalEdgeStyle;rounded=0;orthogonalLoop=1;jettySize=auto;html=1;" edge="1" parent="WIyWlLk6GJQsqaUBKTNV-1" source="2lHZeVdWj4hI9dxoHAF5-10" target="2lHZeVdWj4hI9dxoHAF5-3">
          <mxGeometry relative="1" as="geometry" />
        </mxCell>
        <mxCell id="2lHZeVdWj4hI9dxoHAF5-10" value="int N" style="shape=parallelogram;perimeter=parallelogramPerimeter;whiteSpace=wrap;html=1;fixedSize=1;" vertex="1" parent="WIyWlLk6GJQsqaUBKTNV-1">
          <mxGeometry x="335" y="120" width="110" height="30" as="geometry" />
        </mxCell>
        <mxCell id="2lHZeVdWj4hI9dxoHAF5-18" value="End" style="ellipse;whiteSpace=wrap;html=1;" vertex="1" parent="WIyWlLk6GJQsqaUBKTNV-1">
          <mxGeometry x="180" y="295" width="80" height="50" as="geometry" />
        </mxCell>
        <mxCell id="2lHZeVdWj4hI9dxoHAF5-20" value="False" style="text;html=1;align=center;verticalAlign=middle;resizable=0;points=[];autosize=1;strokeColor=none;fillColor=none;" vertex="1" parent="WIyWlLk6GJQsqaUBKTNV-1">
          <mxGeometry x="285" y="288" width="50" height="30" as="geometry" />
        </mxCell>
        <mxCell id="2lHZeVdWj4hI9dxoHAF5-24" value="" style="edgeStyle=orthogonalEdgeStyle;rounded=0;orthogonalLoop=1;jettySize=auto;html=1;" edge="1" parent="WIyWlLk6GJQsqaUBKTNV-1" source="2lHZeVdWj4hI9dxoHAF5-21" target="2lHZeVdWj4hI9dxoHAF5-23">
          <mxGeometry relative="1" as="geometry" />
        </mxCell>
        <mxCell id="2lHZeVdWj4hI9dxoHAF5-21" value="j = i - 1" style="whiteSpace=wrap;html=1;" vertex="1" parent="WIyWlLk6GJQsqaUBKTNV-1">
          <mxGeometry x="330" y="390" width="120" height="40" as="geometry" />
        </mxCell>
        <mxCell id="2lHZeVdWj4hI9dxoHAF5-26" value="" style="edgeStyle=orthogonalEdgeStyle;rounded=0;orthogonalLoop=1;jettySize=auto;html=1;" edge="1" parent="WIyWlLk6GJQsqaUBKTNV-1" source="2lHZeVdWj4hI9dxoHAF5-23" target="2lHZeVdWj4hI9dxoHAF5-25">
          <mxGeometry relative="1" as="geometry" />
        </mxCell>
        <mxCell id="2lHZeVdWj4hI9dxoHAF5-33" style="edgeStyle=orthogonalEdgeStyle;rounded=0;orthogonalLoop=1;jettySize=auto;html=1;" edge="1" parent="WIyWlLk6GJQsqaUBKTNV-1" source="2lHZeVdWj4hI9dxoHAF5-23">
          <mxGeometry relative="1" as="geometry">
            <mxPoint x="530" y="515" as="targetPoint" />
          </mxGeometry>
        </mxCell>
        <mxCell id="2lHZeVdWj4hI9dxoHAF5-23" value="j &amp;gt;= 0" style="rhombus;whiteSpace=wrap;html=1;" vertex="1" parent="WIyWlLk6GJQsqaUBKTNV-1">
          <mxGeometry x="350" y="490" width="80" height="50" as="geometry" />
        </mxCell>
        <mxCell id="2lHZeVdWj4hI9dxoHAF5-29" value="" style="edgeStyle=orthogonalEdgeStyle;rounded=0;orthogonalLoop=1;jettySize=auto;html=1;" edge="1" parent="WIyWlLk6GJQsqaUBKTNV-1" source="2lHZeVdWj4hI9dxoHAF5-25" target="2lHZeVdWj4hI9dxoHAF5-28">
          <mxGeometry relative="1" as="geometry" />
        </mxCell>
        <mxCell id="2lHZeVdWj4hI9dxoHAF5-51" value="" style="edgeStyle=orthogonalEdgeStyle;rounded=0;orthogonalLoop=1;jettySize=auto;html=1;" edge="1" parent="WIyWlLk6GJQsqaUBKTNV-1" source="2lHZeVdWj4hI9dxoHAF5-25" target="2lHZeVdWj4hI9dxoHAF5-50">
          <mxGeometry relative="1" as="geometry">
            <Array as="points">
              <mxPoint x="195" y="600" />
            </Array>
          </mxGeometry>
        </mxCell>
        <mxCell id="2lHZeVdWj4hI9dxoHAF5-25" value="arr[ i ] &amp;lt; arr[ j ]&amp;nbsp;&amp;nbsp;" style="rhombus;whiteSpace=wrap;html=1;" vertex="1" parent="WIyWlLk6GJQsqaUBKTNV-1">
          <mxGeometry x="332.5" y="575" width="115" height="50" as="geometry" />
        </mxCell>
        <mxCell id="2lHZeVdWj4hI9dxoHAF5-38" value="" style="edgeStyle=orthogonalEdgeStyle;rounded=0;orthogonalLoop=1;jettySize=auto;html=1;" edge="1" parent="WIyWlLk6GJQsqaUBKTNV-1" source="2lHZeVdWj4hI9dxoHAF5-28" target="2lHZeVdWj4hI9dxoHAF5-37">
          <mxGeometry relative="1" as="geometry" />
        </mxCell>
        <mxCell id="2lHZeVdWj4hI9dxoHAF5-28" value="temp = arr[ i ]&lt;br&gt;k = i" style="whiteSpace=wrap;html=1;" vertex="1" parent="WIyWlLk6GJQsqaUBKTNV-1">
          <mxGeometry x="330" y="660" width="120" height="40" as="geometry" />
        </mxCell>
        <mxCell id="2lHZeVdWj4hI9dxoHAF5-31" value="True" style="text;html=1;align=center;verticalAlign=middle;resizable=0;points=[];autosize=1;strokeColor=none;fillColor=none;" vertex="1" parent="WIyWlLk6GJQsqaUBKTNV-1">
          <mxGeometry x="385" y="348" width="50" height="30" as="geometry" />
        </mxCell>
        <mxCell id="2lHZeVdWj4hI9dxoHAF5-32" value="True" style="text;html=1;align=center;verticalAlign=middle;resizable=0;points=[];autosize=1;strokeColor=none;fillColor=none;" vertex="1" parent="WIyWlLk6GJQsqaUBKTNV-1">
          <mxGeometry x="385" y="540" width="50" height="30" as="geometry" />
        </mxCell>
        <mxCell id="2lHZeVdWj4hI9dxoHAF5-34" value="False" style="text;html=1;align=center;verticalAlign=middle;resizable=0;points=[];autosize=1;strokeColor=none;fillColor=none;" vertex="1" parent="WIyWlLk6GJQsqaUBKTNV-1">
          <mxGeometry x="435" y="480" width="50" height="30" as="geometry" />
        </mxCell>
        <mxCell id="2lHZeVdWj4hI9dxoHAF5-35" value="False" style="text;html=1;align=center;verticalAlign=middle;resizable=0;points=[];autosize=1;strokeColor=none;fillColor=none;" vertex="1" parent="WIyWlLk6GJQsqaUBKTNV-1">
          <mxGeometry x="389" y="625" width="50" height="30" as="geometry" />
        </mxCell>
        <mxCell id="2lHZeVdWj4hI9dxoHAF5-40" value="" style="edgeStyle=orthogonalEdgeStyle;rounded=0;orthogonalLoop=1;jettySize=auto;html=1;" edge="1" parent="WIyWlLk6GJQsqaUBKTNV-1" source="2lHZeVdWj4hI9dxoHAF5-37" target="2lHZeVdWj4hI9dxoHAF5-39">
          <mxGeometry relative="1" as="geometry" />
        </mxCell>
        <mxCell id="2lHZeVdWj4hI9dxoHAF5-63" value="" style="edgeStyle=orthogonalEdgeStyle;rounded=0;orthogonalLoop=1;jettySize=auto;html=1;" edge="1" parent="WIyWlLk6GJQsqaUBKTNV-1" source="2lHZeVdWj4hI9dxoHAF5-37" target="2lHZeVdWj4hI9dxoHAF5-62">
          <mxGeometry relative="1" as="geometry" />
        </mxCell>
        <mxCell id="2lHZeVdWj4hI9dxoHAF5-37" value="k &amp;gt; j + 1" style="rhombus;whiteSpace=wrap;html=1;" vertex="1" parent="WIyWlLk6GJQsqaUBKTNV-1">
          <mxGeometry x="350" y="782" width="80" height="50" as="geometry" />
        </mxCell>
        <mxCell id="2lHZeVdWj4hI9dxoHAF5-46" value="" style="edgeStyle=orthogonalEdgeStyle;rounded=0;orthogonalLoop=1;jettySize=auto;html=1;" edge="1" parent="WIyWlLk6GJQsqaUBKTNV-1" source="2lHZeVdWj4hI9dxoHAF5-39" target="2lHZeVdWj4hI9dxoHAF5-45">
          <mxGeometry relative="1" as="geometry">
            <Array as="points">
              <mxPoint x="200" y="882" />
            </Array>
          </mxGeometry>
        </mxCell>
        <mxCell id="2lHZeVdWj4hI9dxoHAF5-39" value="arr[ k ] = arr[ k - 1 ]" style="whiteSpace=wrap;html=1;" vertex="1" parent="WIyWlLk6GJQsqaUBKTNV-1">
          <mxGeometry x="330" y="862" width="120" height="35" as="geometry" />
        </mxCell>
        <mxCell id="2lHZeVdWj4hI9dxoHAF5-41" value="True" style="text;html=1;align=center;verticalAlign=middle;resizable=0;points=[];autosize=1;strokeColor=none;fillColor=none;" vertex="1" parent="WIyWlLk6GJQsqaUBKTNV-1">
          <mxGeometry x="380" y="832" width="50" height="30" as="geometry" />
        </mxCell>
        <mxCell id="2lHZeVdWj4hI9dxoHAF5-49" style="edgeStyle=orthogonalEdgeStyle;rounded=0;orthogonalLoop=1;jettySize=auto;html=1;" edge="1" parent="WIyWlLk6GJQsqaUBKTNV-1" source="2lHZeVdWj4hI9dxoHAF5-45">
          <mxGeometry relative="1" as="geometry">
            <mxPoint x="200" y="740" as="targetPoint" />
          </mxGeometry>
        </mxCell>
        <mxCell id="2lHZeVdWj4hI9dxoHAF5-45" value="k - -" style="whiteSpace=wrap;html=1;" vertex="1" parent="WIyWlLk6GJQsqaUBKTNV-1">
          <mxGeometry x="170" y="832" width="60" height="30" as="geometry" />
        </mxCell>
        <mxCell id="2lHZeVdWj4hI9dxoHAF5-54" style="edgeStyle=orthogonalEdgeStyle;rounded=0;orthogonalLoop=1;jettySize=auto;html=1;" edge="1" parent="WIyWlLk6GJQsqaUBKTNV-1" source="2lHZeVdWj4hI9dxoHAF5-50">
          <mxGeometry relative="1" as="geometry">
            <mxPoint x="195" y="460" as="targetPoint" />
          </mxGeometry>
        </mxCell>
        <mxCell id="2lHZeVdWj4hI9dxoHAF5-50" value="j - -" style="whiteSpace=wrap;html=1;" vertex="1" parent="WIyWlLk6GJQsqaUBKTNV-1">
          <mxGeometry x="170" y="510" width="50" height="30" as="geometry" />
        </mxCell>
        <mxCell id="2lHZeVdWj4hI9dxoHAF5-55" value="" style="endArrow=classic;html=1;rounded=0;" edge="1" parent="WIyWlLk6GJQsqaUBKTNV-1">
          <mxGeometry width="50" height="50" relative="1" as="geometry">
            <mxPoint x="195" y="460" as="sourcePoint" />
            <mxPoint x="390" y="460" as="targetPoint" />
            <Array as="points" />
          </mxGeometry>
        </mxCell>
        <mxCell id="2lHZeVdWj4hI9dxoHAF5-56" value="" style="endArrow=classic;html=1;rounded=0;" edge="1" parent="WIyWlLk6GJQsqaUBKTNV-1">
          <mxGeometry width="50" height="50" relative="1" as="geometry">
            <mxPoint x="530" y="514.5" as="sourcePoint" />
            <mxPoint x="530" y="680" as="targetPoint" />
            <Array as="points" />
          </mxGeometry>
        </mxCell>
        <mxCell id="2lHZeVdWj4hI9dxoHAF5-57" value="" style="endArrow=classic;html=1;rounded=0;entryX=1;entryY=0.5;entryDx=0;entryDy=0;" edge="1" parent="WIyWlLk6GJQsqaUBKTNV-1" target="2lHZeVdWj4hI9dxoHAF5-28">
          <mxGeometry width="50" height="50" relative="1" as="geometry">
            <mxPoint x="530" y="679.5" as="sourcePoint" />
            <mxPoint x="725" y="679.5" as="targetPoint" />
            <Array as="points" />
          </mxGeometry>
        </mxCell>
        <mxCell id="2lHZeVdWj4hI9dxoHAF5-59" value="" style="endArrow=classic;html=1;rounded=0;" edge="1" parent="WIyWlLk6GJQsqaUBKTNV-1">
          <mxGeometry width="50" height="50" relative="1" as="geometry">
            <mxPoint x="200" y="740" as="sourcePoint" />
            <mxPoint x="389" y="740" as="targetPoint" />
            <Array as="points" />
          </mxGeometry>
        </mxCell>
        <mxCell id="2lHZeVdWj4hI9dxoHAF5-66" value="" style="edgeStyle=orthogonalEdgeStyle;rounded=0;orthogonalLoop=1;jettySize=auto;html=1;" edge="1" parent="WIyWlLk6GJQsqaUBKTNV-1" source="2lHZeVdWj4hI9dxoHAF5-62" target="2lHZeVdWj4hI9dxoHAF5-65">
          <mxGeometry relative="1" as="geometry" />
        </mxCell>
        <mxCell id="2lHZeVdWj4hI9dxoHAF5-62" value="arr[ k ] = temp" style="whiteSpace=wrap;html=1;" vertex="1" parent="WIyWlLk6GJQsqaUBKTNV-1">
          <mxGeometry x="490" y="787" width="120" height="40" as="geometry" />
        </mxCell>
        <mxCell id="2lHZeVdWj4hI9dxoHAF5-64" value="False" style="text;html=1;align=center;verticalAlign=middle;resizable=0;points=[];autosize=1;strokeColor=none;fillColor=none;rotation=0;" vertex="1" parent="WIyWlLk6GJQsqaUBKTNV-1">
          <mxGeometry x="430" y="778" width="50" height="30" as="geometry" />
        </mxCell>
        <mxCell id="2lHZeVdWj4hI9dxoHAF5-67" style="edgeStyle=orthogonalEdgeStyle;rounded=0;orthogonalLoop=1;jettySize=auto;html=1;" edge="1" parent="WIyWlLk6GJQsqaUBKTNV-1" source="2lHZeVdWj4hI9dxoHAF5-65">
          <mxGeometry relative="1" as="geometry">
            <mxPoint x="675" y="170" as="targetPoint" />
          </mxGeometry>
        </mxCell>
        <mxCell id="2lHZeVdWj4hI9dxoHAF5-65" value="i ++" style="whiteSpace=wrap;html=1;" vertex="1" parent="WIyWlLk6GJQsqaUBKTNV-1">
          <mxGeometry x="640" y="440" width="70" height="30" as="geometry" />
        </mxCell>
        <mxCell id="2lHZeVdWj4hI9dxoHAF5-68" value="" style="endArrow=classic;html=1;rounded=0;" edge="1" parent="WIyWlLk6GJQsqaUBKTNV-1">
          <mxGeometry width="50" height="50" relative="1" as="geometry">
            <mxPoint x="670" y="170" as="sourcePoint" />
            <mxPoint x="390" y="170" as="targetPoint" />
            <Array as="points" />
          </mxGeometry>
        </mxCell>
        <mxCell id="2lHZeVdWj4hI9dxoHAF5-69" value="True" style="text;html=1;align=center;verticalAlign=middle;resizable=0;points=[];autosize=1;strokeColor=none;fillColor=none;" vertex="1" parent="WIyWlLk6GJQsqaUBKTNV-1">
          <mxGeometry x="285" y="570" width="50" height="30" as="geometry" />
        </mxCell>
      </root>
    </mxGraphModel>
  </diagram>
</mxfile>
